<?xml version="1.0" encoding="UTF-8"?>
<svg id="Layer_1" data-name="Layer 1" xmlns="http://www.w3.org/2000/svg" viewBox="0 0 375.19 437.79">
  <path d="m93.68,375.2c-2.29,0-4.08,0-5.87,0-18.17,0-36.33.06-54.5-.02C13.21,375.11.05,362.1.04,342.07c-.05-102.99-.05-205.98,0-308.98C.05,13.12,13.31.04,33.39.03,104.88,0,176.38,0,247.87.02c20.35,0,33.49,13.13,33.57,33.41.04,9.49,0,18.97,0,29.2,2.08,0,3.84,0,5.6,0,18.33,0,36.66-.05,55,.01,20.08.07,33.13,13.12,33.13,33.22.03,102.83.03,205.65,0,308.48,0,20.18-13.32,33.42-33.58,33.43-71.49.02-142.99.03-214.48,0-20.11,0-33.38-13.41-33.43-33.62-.02-9.46,0-18.92,0-28.94ZM343.43,94.19H125.66v311.66h217.77V94.19Zm-93.7-62.4H31.87v311.63h61.82v-6.38c0-79.97.26-159.94-.19-239.91-.11-19.49,14.12-35.04,34.62-34.67,38.64.7,77.3.2,115.95.2h5.65v-30.86Z"/>
</svg>