<?xml version="1.0" encoding="UTF-8"?>
<svg id="Layer_1" data-name="Layer 1" xmlns="http://www.w3.org/2000/svg" viewBox="0 0 71.43 50">
  <defs>
    <style>
      .cls-1 {
        fill: #fff;
      }
    </style>
  </defs>
  <path class="cls-1" d="m69.94,7.81c-.82-3.07-3.24-5.49-6.31-6.32-5.57-1.49-27.91-1.49-27.91-1.49,0,0-22.34,0-27.91,1.49-3.07.82-5.49,3.24-6.31,6.32C0,13.38,0,25,0,25c0,0,0,11.62,1.49,17.19.82,3.07,3.24,5.49,6.31,6.32,5.57,1.49,27.91,1.49,27.91,1.49,0,0,22.34,0,27.91-1.49,3.07-.82,5.49-3.24,6.31-6.32,1.49-5.57,1.49-17.19,1.49-17.19,0,0,0-11.62-1.49-17.19Zm-41.36,27.91V14.29l18.56,10.71-18.56,10.71Z"/>
</svg>