<?xml version="1.0" encoding="UTF-8"?>
<svg id="Layer_1" data-name="Layer 1" xmlns="http://www.w3.org/2000/svg" viewBox="0 0 436.81 312.46">
  <path d="m218.69,0C279.72,0,340.76,0,401.79,0c22.15,0,35.01,12.87,35.02,34.98,0,80.84,0,161.67,0,242.51,0,21.97-13.04,34.96-35.12,34.96-122.23,0-244.47,0-366.7,0C12.97,312.46,0,299.46,0,277.39,0,196.55,0,115.72,0,34.88,0,12.79,12.86,0,35.09,0c61.2,0,122.4,0,183.6,0Zm186.45,31.88c-1.9,1.56-3.18,2.6-4.45,3.65-53.41,44.23-106.81,88.46-160.23,132.68-14.7,12.17-29.45,12.17-44.16,0C142.88,123.99,89.48,79.74,36.07,35.52c-1.34-1.11-2.74-2.14-4.45-3.47v248.59h373.52V31.88Zm-186.76,113.93c46.44-38.04,92.5-75.77,139.22-114.05H79.15c46.75,38.3,92.77,75.99,139.23,114.05Z"/>
</svg>