<?xml version="1.0" encoding="UTF-8"?>
<svg id="Layer_1" data-name="Layer 1" xmlns="http://www.w3.org/2000/svg" viewBox="0 0 395 395">
  <defs>
    <style>
      .cls-1 {
        fill: #fff;
      }

      .cls-2 {
        fill: #1677f0;
      }
    </style>
  </defs>
  <path class="cls-2" d="m395,197.5C395,88.42,306.58,0,197.5,0S0,88.42,0,197.5c0,98.58,72.22,180.28,166.64,195.1v-138.01h-50.15v-57.09h50.15v-43.51c0-49.5,29.49-76.84,74.6-76.84,21.61,0,44.21,3.86,44.21,3.86v48.6h-24.9c-24.53,0-32.19,15.22-32.19,30.84v37.05h54.78l-8.76,57.09h-46.02v138.01c94.42-14.82,166.64-96.52,166.64-195.1Z"/>
  <path class="cls-1" d="m274.38,254.59l8.76-57.09h-54.78v-37.05c0-15.62,7.65-30.84,32.19-30.84h24.9v-48.6s-22.6-3.86-44.21-3.86c-45.11,0-74.6,27.34-74.6,76.84v43.51h-50.15v57.09h50.15v138.01c10.06,1.58,20.36,2.4,30.86,2.4s20.8-.82,30.86-2.4v-138.01h46.02Z"/>
</svg>