<?xml version="1.0" encoding="UTF-8"?>
<svg id="Layer_1" data-name="Layer 1" xmlns="http://www.w3.org/2000/svg" viewBox="0 0 49.11 49.11">
  <defs>
    <style>
      .cls-1 {
        fill: #fff;
      }
    </style>
  </defs>
  <path class="cls-1" d="m24.56,4.42c6.56,0,7.33.03,9.92.14,2.39.11,3.69.51,4.56.85,1.15.45,1.96.98,2.82,1.84.86.86,1.39,1.68,1.84,2.82.34.87.74,2.17.85,4.56.12,2.59.14,3.37.14,9.92s-.03,7.33-.14,9.92c-.11,2.39-.51,3.69-.85,4.56-.45,1.15-.98,1.96-1.84,2.82-.86.86-1.68,1.39-2.82,1.84-.87.34-2.17.74-4.56.85-2.59.12-3.37.14-9.92.14s-7.33-.03-9.92-.14c-2.39-.11-3.69-.51-4.56-.85-1.15-.45-1.96-.98-2.82-1.84-.86-.86-1.39-1.68-1.84-2.82-.34-.87-.74-2.17-.85-4.56-.12-2.59-.14-3.37-.14-9.92s.03-7.33.14-9.92c.11-2.39.51-3.69.85-4.56.45-1.15.98-1.96,1.84-2.82.86-.86,1.68-1.39,2.82-1.84.87-.34,2.17-.74,4.56-.85,2.59-.12,3.37-.14,9.92-.14m0-4.42c-6.67,0-7.51.03-10.12.15-2.61.12-4.4.53-5.96,1.14-1.61.63-2.98,1.47-4.35,2.83-1.37,1.37-2.2,2.73-2.83,4.35-.61,1.56-1.02,3.35-1.14,5.96-.12,2.62-.15,3.46-.15,10.12s.03,7.5.15,10.12c.12,2.61.53,4.4,1.14,5.96.63,1.61,1.47,2.98,2.83,4.35,1.37,1.37,2.73,2.2,4.35,2.83,1.56.61,3.35,1.02,5.96,1.14,2.62.12,3.46.15,10.12.15s7.5-.03,10.12-.15c2.61-.12,4.4-.53,5.96-1.14,1.61-.63,2.98-1.47,4.35-2.83,1.37-1.37,2.2-2.73,2.83-4.35.61-1.56,1.02-3.35,1.14-5.96.12-2.62.15-3.46.15-10.12s-.03-7.5-.15-10.12c-.12-2.61-.53-4.4-1.14-5.96-.63-1.61-1.47-2.98-2.83-4.35-1.37-1.37-2.73-2.2-4.35-2.83-1.56-.61-3.35-1.02-5.96-1.14-2.62-.12-3.46-.15-10.12-.15h0Z"/>
  <path class="cls-1" d="m24.56,11.95c-6.96,0-12.61,5.65-12.61,12.61s5.65,12.61,12.61,12.61,12.61-5.65,12.61-12.61-5.65-12.61-12.61-12.61Zm0,20.79c-4.52,0-8.19-3.66-8.19-8.19s3.66-8.19,8.19-8.19,8.19,3.66,8.19,8.19-3.66,8.19-8.19,8.19Z"/>
  <circle class="cls-1" cx="37.66" cy="11.45" r="2.95"/>
</svg>