<?xml version="1.0" encoding="utf-8"?>
<!-- Generator: Adobe Illustrator 27.5.0, SVG Export Plug-In . SVG Version: 6.00 Build 0)  -->
<svg version="1.1" id="Layer_1" xmlns="http://www.w3.org/2000/svg" xmlns:xlink="http://www.w3.org/1999/xlink" x="0px" y="0px"
	 viewBox="0 0 49.4 56.5" style="enable-background:new 0 0 49.4 56.5;" xml:space="preserve">
<style type="text/css">
	.st0{fill:#FFFFFF;}
</style>
<path class="st0" d="M44.8,39.3c-3.4-2-7.6-1.7-10.6,0.9c-0.3,0.3-0.6,0.6-0.9,0.8c-4.2-2.6-8.3-5.2-12.5-7.7
	c0.8-1.5,1.3-3.3,1.3-5.2c0-1.8-0.4-3.4-1.2-4.9c4.1-2.6,8.2-5.1,12.4-7.7c0.2,0.2,0.3,0.3,0.5,0.5c2.2,2,4.7,2.8,7.7,2.4
	c4.5-0.6,7.7-4.3,7.9-8.9c0.2-4.2-2.8-8.2-7.1-9.2c-0.4-0.1-0.8-0.2-1.2-0.3h-2c-0.1,0-0.2,0.1-0.3,0.1C33,1,29.6,6.6,31.4,12.2
	c0.1,0.4,0.1,0.5-0.2,0.7c-4.1,2.5-8.1,5-12.2,7.5c-2-2.1-4.8-3.4-7.9-3.4C4.9,17,0,22,0,28.1s4.9,11,11,11c3,0,5.7-1.2,7.7-3.1
	c4.1,2.5,8.2,5.1,12.2,7.6c0.4,0.3,0.5,0.5,0.4,1c-1.4,4.4,0.7,9.2,4.9,11.1c0.9,0.4,1.5,0.7,2.9,0.9c1.3,0.2,2.2-0.1,2.3-0.1
	c3.8-0.6,7-3.5,7.7-7.3C50,45.2,48.2,41.3,44.8,39.3L44.8,39.3z M40.1,3.4C43.4,3.4,46,6,46,9.3c0,3.2-2.7,5.9-5.9,5.9
	c-3.2,0-5.8-2.7-5.8-5.9C34.3,6,36.9,3.4,40.1,3.4z M11,35.9c-4.3,0-7.8-3.5-7.8-7.8s3.5-7.8,7.8-7.8s7.8,3.5,7.8,7.8
	S15.3,35.9,11,35.9z M40.1,53.1c-3.2,0-5.8-2.6-5.9-5.8c0-3.2,2.6-5.9,5.8-5.9c3.2,0,5.9,2.6,5.9,5.8C46,50.4,43.4,53.1,40.1,53.1
	L40.1,53.1z"/>
</svg>
