<?xml version="1.0" encoding="UTF-8"?>
<svg id="Layer_1" data-name="Layer 1" xmlns="http://www.w3.org/2000/svg" viewBox="0 0 45.02 51.25">
  <defs>
    <style>
      .cls-1 {
        fill: #fff;
      }
    </style>
  </defs>
  <path class="cls-1" d="m15.58,51.25c-1.14-.17-2.29-.26-3.41-.51C5.85,49.29.91,43.8.12,37.39c-1.05-8.56,4.75-16.27,13.29-17.69,1.7-.28,3.93-.27,5,.02v8.39c-.45-.08-.86-.18-1.28-.24-4.12-.6-8.04,2.28-8.58,6.3-.58,4.32,2.3,8.11,6.53,8.68,4.26.58,8.6-2.73,8.56-7.76-.05-5.98,0-11.96,0-17.94,0-5.5,0-10.99,0-16.49v-.68h8.29c.12.86.2,1.72.37,2.57,1.18,5.72,6.24,10,12.07,10.2.51.02.64.15.63.65-.03,2.37-.01,4.74-.01,7.12,0,.18,0,.36,0,.58-4.83-.02-9.09-1.5-12.98-4.39,0,.27,0,.45,0,.62.02,5.91.03,11.83.05,17.74.01,3.22-.78,6.22-2.6,8.9-2.96,4.36-7.09,6.76-12.36,7.18-.18.01-.36.06-.54.08h-1Z"/>
</svg>